<?xml version="1.0" encoding="utf-8"?>
<!-- Generator: Adobe Illustrator 16.0.0, SVG Export Plug-In . SVG Version: 6.00 Build 0)  -->
<!DOCTYPE svg PUBLIC "-//W3C//DTD SVG 1.1//EN" "http://www.w3.org/Graphics/SVG/1.1/DTD/svg11.dtd">
<svg version="1.1" id="Layer_1" xmlns="http://www.w3.org/2000/svg" xmlns:xlink="http://www.w3.org/1999/xlink" x="0px" y="0px"
	 width="190px" height="62.5px" viewBox="0 0 190 62.5" style="enable-background:new 0 0 190 62.5;" xml:space="preserve">
<path style="fill:#D6117D;" d="M65.4,59.6v-45h16c9.7,0,15.5,5.8,15.5,16.1c0,5.6-1.7,15.5-16,15.5h-7.3v13.3H65.4z M76.7,21.5
	l-3.1,0.1v17.9h3.1c7.3,0,11.3-0.1,11.3-8.9C88,21.9,84,21.5,76.7,21.5z"/>
<path style="fill:#D6117D;" d="M128.3,46.3h-12.2c-13.3,0-16-8.7-16-15.8c0-8,3.8-15.8,16-15.8h12.2v6.5h-11c-4.9,0-7.5,0.7-7.8,6
	h18.8v6.7h-18.8c0.3,4.7,1.5,5.9,7.7,5.9h11.1V46.3z"/>
<path style="fill:#D6117D;" d="M130.5,21v-6.3h5.8V3.2h8.3v11.5h8.9V21h-8.9v12.8c0,5.3,1.7,6.2,8.1,6.2h0.8v6.3H146
	c-6.3,0-9.7-3.7-9.7-9.8V21H130.5z"/>
<path style="fill:#D6117D;" d="M147,46.3v-6.5h27.6c3,0,4.4-1,4.4-3.2c0-2-1.4-3.1-4.4-3.1h-7.3c-6.2,0-10.9-0.5-10.9-8.8
	c0-6.7,3.7-10.1,11.2-10.1h17.9v6.5h-14.8c-3.8,0-5.7,0.4-5.7,3.1c0,1.8,1.3,2.6,4,2.6h7.6c5.5,0,10.3,1.9,10.6,8.9
	c0,5.9-3.4,10.4-8.7,10.4H147z"/>
<path style="fill:#D6117D;" d="M39.7,60.2H25.8V46.4h-7.1c-12.3,0-16-7.6-16-15.4c0-7.4,3.1-16.3,15.4-16.3h16.1v38.7h9.6L39.7,60.2
	z M25.8,39.7V21.7c-0.2,0-1-0.1-2.6-0.1c-8.6-0.3-11.8,0.9-11.8,8.8c0,5.9,2.1,9.2,9.2,9.2H25.8z"/>
<path style="fill:#D6117D;" d="M39.4,46.4V14.8h14c8,0,8.8,2.4,8.8,11.3c0,0.4,0,1,0,1.9h-7.9v-2.5c0-4.6,0-4.6-6.6-4.6v25.6H39.4z"
	/>
</svg>
